<svg width="384" height="448" viewBox="0 0 384 448" fill="none" xmlns="http://www.w3.org/2000/svg">
<path d="M1 66.0801C73.0525 -67.3019 331.087 16.2121 353.257 183.24C361.287 243.739 266.611 207.593 310.764 176.631C350.177 148.993 481.966 319.626 245.486 447" stroke="white"/>
<path d="M278 440.323L245 447L264.412 425.147" stroke="white"/>
<line x1="263.499" y1="426.038" x2="262.499" y2="439.038" stroke="white"/>
<line x1="276.908" y1="440.491" x2="260.908" y2="437.491" stroke="white"/>
<path d="M247 445.546C247.454 444.915 248.133 444.465 248.657 443.906C248.935 443.61 249.232 443.323 249.524 443.041C249.716 442.856 250 442.746 250.155 442.535C250.383 442.226 250.566 441.94 250.771 441.611C251.019 441.215 251.334 440.841 251.672 440.515C251.931 440.265 252.171 440.001 252.44 439.762C252.61 439.611 252.746 439.37 252.925 439.247C253.294 438.991 253.841 438.432 254.016 438.013C254.231 437.496 254.709 437.025 255.13 436.667C255.497 436.355 255.844 436.084 256.169 435.719C256.513 435.333 256.931 434.823 257.169 434.362C257.402 433.911 257.685 433.503 257.99 433.111C258.344 432.656 258.771 432.259 259.127 431.807C259.275 431.619 259.368 431.372 259.56 431.224C259.78 431.054 260.029 430.824 260.209 430.611C260.429 430.349 260.782 430.201 261.051 429.998C261.262 429.837 261.452 429.658 261.659 429.492C262.034 429.19 262.219 428.67 262.56 428.329C262.624 428.264 262.602 428.144 262.602 428.062C262.602 427.832 262.607 428.309 262.594 428.37C262.537 428.634 262.538 428.88 262.533 429.15C262.53 429.373 262.431 429.587 262.431 429.807C262.431 430.848 262.124 431.944 261.935 432.965C261.837 433.49 261.76 434.019 261.67 434.548C261.618 434.859 261.693 435.186 261.636 435.495C261.589 435.746 261.616 436.006 261.577 436.257C261.52 436.63 261.642 436.755 261.368 437.029C261.019 437.378 260.541 437.347 260.138 437.593C259.596 437.925 259.107 438.396 258.538 438.68C258.135 438.882 257.768 439.164 257.367 439.353C257.023 439.515 256.711 439.706 256.36 439.832C256.004 439.96 255.713 440.045 255.381 440.245C255.256 440.32 254.818 440.321 254.883 440.581C254.906 440.675 254.451 440.851 254.392 440.893C253.93 441.216 253.387 441.606 252.881 441.843C252.782 441.89 252.592 441.927 252.55 442.049C252.509 442.168 252.512 442.234 252.379 442.296C252.236 442.362 251.933 442.433 251.832 442.528C251.555 442.785 251.032 442.51 250.779 442.953C250.728 443.043 250.797 443.118 250.653 443.143C250.568 443.158 250.5 443.145 250.421 443.178C250.271 443.241 250.355 443.284 250.323 443.463C250.297 443.604 250.18 443.666 250.087 443.759C249.908 443.938 249.587 443.87 249.344 443.87C249.095 443.87 249.785 443.634 249.979 443.478C250.415 443.126 250.865 442.789 251.279 442.412C251.749 441.982 251.899 441.349 252.421 440.954C252.728 440.721 253.04 440.484 253.303 440.201C253.403 440.093 253.472 439.621 253.569 439.884C253.649 440.1 253.624 440.378 253.674 440.602C253.682 440.638 253.721 440.654 253.755 440.646C253.844 440.625 253.853 440.342 253.864 440.288C253.928 439.975 253.981 439.66 254.048 439.348C254.125 438.994 254.439 440.458 254.546 439.754C254.623 439.248 254.748 438.785 254.803 438.289C254.811 438.214 254.841 437.851 254.926 437.945C255.165 438.206 255.283 438.668 255.339 439.005C255.404 439.403 255.286 439.717 255.175 439.072C255.05 438.336 254.844 437.383 255.432 436.78C256.395 435.791 256.723 438.485 256.728 438.984C256.73 439.161 256.701 439.683 256.531 439.817C256.317 439.986 256.068 438.946 256.063 438.92C255.976 438.449 255.804 437.713 256.245 437.357C256.487 437.163 256.521 437.354 256.546 437.589C256.585 437.965 256.612 438.367 256.536 438.739C256.457 439.126 256.294 439.372 256.24 438.84C256.143 437.886 256.279 437.043 256.816 436.238C256.948 436.04 257.109 435.744 257.319 435.612C257.435 435.54 257.505 435.868 257.519 435.911C257.675 436.405 257.751 436.963 257.682 437.479C257.663 437.627 257.566 438.128 257.346 438.154C256.86 438.211 256.572 436.48 256.93 436.139C257.032 436.042 257.253 435.873 257.386 436.027C257.962 436.689 257.783 437.901 257.561 438.646C257.512 438.809 257.12 439.844 256.918 439.425C256.684 438.938 256.577 438.387 256.58 437.848C256.582 437.403 256.79 437.206 257.07 436.886C257.306 436.618 257.572 437.548 257.595 437.639C257.676 437.954 257.691 438.271 257.717 438.593C257.723 438.668 257.793 438.866 257.736 438.817C257.556 438.663 257.77 438.118 257.903 438.015C258.501 437.551 259.352 437.314 260.055 437.057C260.646 436.841 259.812 437.344 259.697 437.418C259.401 437.609 259.104 437.8 258.804 437.985C258.695 438.052 258.353 438.224 258.663 437.958C259.583 437.169 260.863 437.017 261.857 436.358C262.049 436.23 262.28 436.06 261.917 436.118C261.28 436.22 260.604 436.467 260.017 436.726C259.97 436.747 259.405 437.086 259.591 436.84C259.956 436.356 260.497 436.086 260.986 435.753C261.008 435.738 261.504 435.341 261.418 435.542C261.283 435.856 260.911 436.119 260.669 436.337C260.392 436.584 260.112 436.852 259.79 437.042C259.619 437.144 259.127 437.535 259.19 437.125C259.289 436.481 259.944 436.097 260.46 435.797C260.606 435.712 260.88 435.429 261.043 435.405C261.458 435.346 260.478 436.032 260.14 436.28C260.025 436.364 258.632 437.172 258.621 437.049C258.549 436.206 259.804 435.548 260.368 435.16C261.039 434.699 261.368 434.329 261.446 433.544C261.499 433.013 261.511 432.481 261.549 431.948C261.588 431.399 261.794 430.799 261.655 430.248C261.642 430.196 261.554 429.776 261.492 429.887C261.275 430.273 261.281 430.755 261.184 431.176C260.912 432.353 260.429 433.459 260.001 434.58C259.986 434.622 259.649 435.454 259.593 435.426C259.476 435.368 259.695 434.853 259.749 434.797C259.874 434.665 260.157 434.57 260.203 434.375C260.266 434.106 260.329 433.839 260.52 433.632C260.585 433.562 261.054 432.91 261.054 433.295C261.054 433.626 260.914 434.232 260.724 434.504C260.555 434.745 260.686 433.918 260.686 433.624C260.686 433.171 260.72 432.718 260.72 432.269C260.72 432.071 260.836 431.076 260.556 431.108C260.17 431.151 259.87 432.898 259.792 433.149C259.599 433.776 259.35 434.368 259.043 434.947C258.818 435.372 258.584 435.8 258.325 436.206C258.305 436.237 258.182 436.469 258.139 436.464C257.969 436.445 258.016 435.723 258.017 435.612C258.025 434.961 258.414 434.258 258.697 433.677C258.871 433.322 259.172 433.022 259.302 432.647C259.438 432.253 258.959 432.955 258.886 433.048C258.464 433.586 258.15 434.17 257.774 434.734C257.184 435.619 256.311 436.392 255.468 437.029C255.093 437.312 254.583 437.617 254.335 438.025C254.109 438.397 253.914 438.786 253.679 439.154C253.321 439.716 253.401 440.358 253.206 440.965C253.111 441.262 252.848 441.452 252.687 441.706C252.593 441.856 252.472 441.98 252.372 442.125C252.186 442.392 252.861 441.689 253.056 441.429C253.296 441.109 253.602 440.742 253.98 440.585C254.061 440.551 254.877 440.317 254.904 440.437C254.974 440.754 254.787 441.33 254.698 441.609C254.609 441.89 254.414 442.123 254.307 442.396C254.242 442.562 254.192 442.727 254.098 442.879C253.704 443.517 253.223 444.007 252.547 444.345C252.28 444.478 251.906 444.544 251.611 444.554C251.339 444.563 251.055 444.74 250.786 444.793C250.372 444.876 250.037 444.955 249.65 445.135C249.541 445.186 248.754 445.582 248.859 445.592C250.746 445.769 251.86 444.097 253.402 443.417C254.089 443.114 254.796 442.862 255.451 442.505C256.111 442.145 256.755 441.715 257.386 441.305C258.119 440.83 258.888 440.635 259.678 440.319C259.994 440.193 260.305 439.947 260.587 439.756C260.902 439.543 261.237 439.381 261.465 439.068C261.593 438.893 261.746 438.266 261.746 438.483C261.746 438.727 261.326 438.87 261.15 438.96C260.835 439.121 260.506 439.259 260.254 439.511C259.931 439.834 259.461 440.183 259.053 440.383C258.972 440.423 258.515 440.654 258.587 440.646C259.042 440.595 259.5 440.396 259.948 440.298C260.572 440.162 260.979 439.604 261.471 439.235C261.676 439.082 261.916 438.912 262.104 438.737C262.252 438.599 262.503 438.533 262.634 438.38C262.851 438.127 263.743 438.645 263.955 438.696C264.421 438.806 264.957 438.943 265.434 438.943C265.807 438.943 266.186 439.114 266.569 439.114C266.903 439.114 267.248 439.244 267.576 439.302C267.914 439.361 268.361 439.399 268.673 439.541C268.792 439.596 268.871 439.733 269 439.79C269.11 439.84 269.417 439.86 269.528 439.866C269.733 439.877 270.022 440.034 270.163 440.174C270.406 440.417 270.158 440.906 269.87 440.988C269.472 441.102 269.039 441.221 268.623 441.235C267.032 441.288 265.649 442.368 264.063 442.431C263.586 442.449 263.145 442.56 262.685 442.691C262.293 442.803 261.845 443.014 261.438 443.048C261.242 443.065 261.003 443.151 260.811 443.204C260.589 443.266 260.351 443.25 260.123 443.322C259.712 443.452 259.287 443.585 258.891 443.729C258.699 443.799 258.495 443.849 258.295 443.871C258.169 443.885 258.065 443.972 257.931 443.972C257.792 443.972 257.657 443.963 257.523 444.006C257.079 444.15 256.614 444.131 256.164 444.233C255.673 444.343 255.124 444.449 254.618 444.483C254.481 444.493 253.331 444.704 253.33 444.668C253.322 444.349 253.857 444.211 254.101 444.143C254.306 444.086 255.071 444.035 255.135 443.725C255.227 443.289 255.319 444.21 255.485 443.776C255.549 443.61 255.652 442.886 255.797 442.832C255.895 442.795 256.1 443.258 256.131 443.337C256.168 443.428 256.259 443.791 256.27 443.484C256.276 443.322 256.306 443.159 256.306 442.999C256.306 442.504 256.943 443.522 256.979 443.592C256.983 443.6 257.036 442.177 257.116 442.166C257.602 442.099 257.712 443.901 257.907 442.619C257.915 442.564 257.98 441.594 258.127 441.828C258.219 441.974 258.484 442.816 258.652 442.816C258.757 442.816 258.736 442.074 258.736 441.973C258.736 441.946 258.674 441.162 258.819 441.174C259.109 441.198 259.488 442.378 259.446 442.68C259.379 443.169 259.241 443.151 258.827 443.151C258.637 443.151 257.86 443.479 258.561 443.284C259.485 443.026 260.612 442.915 261.389 442.345C261.489 442.272 261.623 442.205 261.748 442.195C262.284 442.154 262.827 442.048 263.36 441.971C264.105 441.863 264.731 441.603 265.438 441.376C266.11 441.16 266.891 441.158 267.589 441.049C268.022 440.981 268.407 440.866 268.825 440.733C268.923 440.702 269.464 440.448 269.312 440.448C267.99 440.448 266.732 440.284 265.445 440.003C264.677 439.836 263.879 439.83 263.104 439.695C262.96 439.67 262.419 439.317 262.505 439.131C262.592 438.942 263.338 439.032 263.499 439.051C263.666 439.071 263.822 439.247 264.006 439.287C264.459 439.385 264.956 439.412 265.398 439.543C265.92 439.699 266.479 439.664 267.008 439.777C267.325 439.845 267.396 440.313 267.042 440.414C266.615 440.536 266.186 440.49 265.751 440.52C265.478 440.539 265.226 440.682 264.98 440.786C264.199 441.119 263.34 441.365 262.529 441.621C261.952 441.803 261.405 442.033 260.842 442.242C260.385 442.412 259.979 442.363 259.796 441.877C259.706 441.637 259.476 440.915 259.625 441.125C259.766 441.322 259.878 441.543 260.028 441.733C260.124 441.855 260.344 441.686 260.442 441.638C260.975 441.381 261.547 441.247 262.081 440.98C262.68 440.681 263.294 440.476 263.951 440.332C264.215 440.274 264.84 440.243 264.119 440.243C263.675 440.243 262.987 440.375 262.617 440.055C262.156 439.656 261.239 440.241 260.963 440.6C260.775 440.845 260.483 441.134 260.138 441.098C260.094 441.093 260.516 440.413 260.64 440.387C260.974 440.318 260.737 440.156 260.575 439.977C260.517 439.912 260.562 439.88 260.648 439.874C261.04 439.847 261.441 439.863 261.834 439.874C261.949 439.877 262.232 439.847 262.336 439.95C262.448 440.062 262.578 440.517 262.328 440.517C262.238 440.517 262.287 440.442 262.303 440.377C262.315 440.326 262.282 440.213 262.315 440.202C263.085 439.948 264.019 440.042 264.841 440.042C265.501 440.042 266.161 440.042 266.821 440.042C267.811 440.042 268.805 440.179 269.792 440.271C270.993 440.384 272.161 440.607 273.363 440.607C273.931 440.607 272.898 440.551 272.745 440.551C272.029 440.551 271.351 440.587 270.668 440.774C270.564 440.802 269.576 441.1 269.733 440.821C269.806 440.689 269.898 440.562 269.959 440.425C270.032 440.26 270.152 440.312 270.285 440.256C270.659 440.098 271.178 440.155 271.584 440.155C271.762 440.155 272.27 440.379 272.262 440.595C272.252 440.837 271.684 440.939 271.496 440.99C270.791 441.182 269.891 441.059 269.155 441.059" stroke="white" stroke-linecap="round" stroke-linejoin="round"/>
<path d="M256.5 440.283C256.283 440.7 255.637 440.822 255.228 441.003C254.524 441.316 253.881 441.657 253.227 442.056C252.61 442.432 251.964 442.814 251.288 443.075C250.934 443.211 250.571 443.416 250.289 443.671C249.972 443.958 249.495 444.081 249.11 444.24C248.835 444.353 248.76 444.437 248.637 444.701C248.62 444.738 248.545 444.928 248.6 444.938C248.982 445.004 249.418 444.943 249.806 444.943C250.508 444.943 251.21 445 251.921 444.969C252.123 444.96 252.273 444.873 252.46 444.817C252.751 444.728 252.91 444.497 253.183 444.361C253.713 444.096 254.206 443.732 254.741 443.455C255.039 443.3 255.278 443.149 255.481 442.869C255.935 442.241 256.233 441.543 256.654 440.897C257.08 440.242 257.586 439.793 258.239 439.364C258.538 439.168 258.867 439.075 259.184 438.924C259.404 438.819 259.879 438.711 259.989 438.454C260.144 438.093 260.61 438.054 260.845 437.773C261.076 437.495 261.442 437.108 261.787 436.965C261.984 436.884 262.213 436.718 262.255 436.498C262.367 435.897 262.401 435.264 262.401 434.653C262.401 434.45 262.401 434.247 262.401 434.044C262.401 433.825 262.477 433.623 262.477 433.408C262.477 433.372 262.432 433.196 262.428 433.295C262.417 433.542 262.449 433.794 262.398 434.038C262.285 434.575 262.085 435.097 261.97 435.637C261.88 436.059 261.817 436.484 261.696 436.899C261.662 437.014 261.631 437.188 261.547 437.28C261.404 437.436 261.094 437.501 260.907 437.562C260.521 437.686 260.134 437.786 259.764 437.953C259.047 438.276 258.351 438.625 257.651 438.98C257.407 439.103 257.089 439.275 256.806 439.27C256.714 439.268 256.484 439.206 256.411 439.277C256.167 439.514 256.755 439.907 256.984 439.973C258.283 440.346 259.813 440.168 261.144 440.168C261.945 440.168 262.746 440.168 263.547 440.168C264.173 440.168 264.752 440.182 265.355 440.374C265.776 440.508 266.165 440.668 266.562 440.862C266.731 440.944 266.937 441.099 267.116 441.139C267.334 441.187 267.688 441.55 267.799 441.74C267.924 441.953 268.173 441.878 268.41 441.878" stroke="white" stroke-linecap="round" stroke-linejoin="round"/>
<path d="M273.525 440.348C273.9 440.332 274.277 440.305 274.652 440.308C274.666 440.308 274.754 440.298 274.714 440.334C274.613 440.425 274.425 440.422 274.301 440.443C274.147 440.469 274.024 440.498 273.894 440.576" stroke="white" stroke-linecap="round" stroke-linejoin="round"/>
</svg>
